<svg xmlns="http://www.w3.org/2000/svg" viewBox="0 0 64 64" width="64" height="64">
  <defs>
    <linearGradient id="gradient1" x1="0%" y1="0%" x2="100%" y2="100%">
      <stop offset="0%" stop-color="#00BCD4" />
      <stop offset="100%" stop-color="#2196F3" />
    </linearGradient>
  </defs>
  
  <!-- API Endpoints -->
  <rect x="4" y="16" width="16" height="12" rx="2" ry="2" fill="#f5f5f5" stroke="#ddd" stroke-width="1.5"/>
  <rect x="24" y="8" width="16" height="12" rx="2" ry="2" fill="#f5f5f5" stroke="#ddd" stroke-width="1.5"/>
  <rect x="44" y="16" width="16" height="12" rx="2" ry="2" fill="#f5f5f5" stroke="#ddd" stroke-width="1.5"/>
  <rect x="24" y="44" width="16" height="12" rx="2" ry="2" fill="#f5f5f5" stroke="#ddd" stroke-width="1.5"/>
  
  <!-- Central API Hub -->
  <circle cx="32" cy="32" r="8" fill="url(#gradient1)" opacity="0.8"/>
  <circle cx="32" cy="32" r="6" fill="white"/>
  <text x="29" y="35" font-family="Arial, sans-serif" font-size="8" font-weight="bold" fill="url(#gradient1)">API</text>
  
  <!-- Connection Lines -->
  <path d="M12,22 L24,32" fill="none" stroke="url(#gradient1)" stroke-width="1.5" stroke-linecap="round"/>
  <path d="M32,16 L32,24" fill="none" stroke="url(#gradient1)" stroke-width="1.5" stroke-linecap="round"/>
  <path d="M52,22 L40,32" fill="none" stroke="url(#gradient1)" stroke-width="1.5" stroke-linecap="round"/>
  <path d="M32,40 L32,44" fill="none" stroke="url(#gradient1)" stroke-width="1.5" stroke-linecap="round"/>
  
  <!-- Data Flow Indicators -->
  <circle cx="20" cy="28" r="1.5" fill="url(#gradient1)"/>
  <circle cx="32" cy="20" r="1.5" fill="url(#gradient1)"/>
  <circle cx="44" cy="28" r="1.5" fill="url(#gradient1)"/>
  <circle cx="32" cy="42" r="1.5" fill="url(#gradient1)"/>
  
  <!-- Code Brackets -->
  <path d="M8,20 L10,22 L8,24" fill="none" stroke="url(#gradient1)" stroke-width="1" stroke-linecap="round" stroke-linejoin="round"/>
  <path d="M16,24 L14,22 L16,20" fill="none" stroke="url(#gradient1)" stroke-width="1" stroke-linecap="round" stroke-linejoin="round"/>
  
  <path d="M28,12 L30,14 L28,16" fill="none" stroke="url(#gradient1)" stroke-width="1" stroke-linecap="round" stroke-linejoin="round"/>
  <path d="M36,16 L34,14 L36,12" fill="none" stroke="url(#gradient1)" stroke-width="1" stroke-linecap="round" stroke-linejoin="round"/>
  
  <path d="M48,20 L50,22 L48,24" fill="none" stroke="url(#gradient1)" stroke-width="1" stroke-linecap="round" stroke-linejoin="round"/>
  <path d="M56,24 L54,22 L56,20" fill="none" stroke="url(#gradient1)" stroke-width="1" stroke-linecap="round" stroke-linejoin="round"/>
  
  <path d="M28,48 L30,50 L28,52" fill="none" stroke="url(#gradient1)" stroke-width="1" stroke-linecap="round" stroke-linejoin="round"/>
  <path d="M36,52 L34,50 L36,48" fill="none" stroke="url(#gradient1)" stroke-width="1" stroke-linecap="round" stroke-linejoin="round"/>
</svg>