<svg xmlns="http://www.w3.org/2000/svg" viewBox="0 0 64 64" width="64" height="64">
  <defs>
    <linearGradient id="gradient1" x1="0%" y1="0%" x2="100%" y2="100%">
      <stop offset="0%" stop-color="#4A90E2" />
      <stop offset="100%" stop-color="#5A5DE8" />
    </linearGradient>
  </defs>
  <rect x="2" y="8" width="60" height="40" rx="2" ry="2" fill="#f5f5f5" stroke="#333" stroke-width="1.5"/>
  <rect x="2" y="8" width="60" height="6" rx="1" ry="1" fill="#333"/>
  <circle cx="6" cy="11" r="1.2" fill="#ff5f57"/>
  <circle cx="10" cy="11" r="1.2" fill="#ffbd2e"/>
  <circle cx="14" cy="11" r="1.2" fill="#28ca41"/>
  <rect x="6" y="18" width="52" height="26" rx="1" ry="1" fill="white" stroke="#ddd" stroke-width="1"/>
  <path d="M16,26 L12,30 L16,34" fill="none" stroke="url(#gradient1)" stroke-width="2" stroke-linecap="round" stroke-linejoin="round"/>
  <path d="M24,26 L28,30 L24,34" fill="none" stroke="url(#gradient1)" stroke-width="2" stroke-linecap="round" stroke-linejoin="round"/>
  <path d="M18,38 L22,22" fill="none" stroke="url(#gradient1)" stroke-width="2" stroke-linecap="round" stroke-linejoin="round"/>
  <rect x="32" y="22" width="20" height="3" rx="1" ry="1" fill="#e0e0e0"/>
  <rect x="32" y="28" width="16" height="3" rx="1" ry="1" fill="#e0e0e0"/>
  <rect x="32" y="34" width="18" height="3" rx="1" ry="1" fill="#e0e0e0"/>
  <rect x="6" y="48" width="52" height="4" rx="1" ry="1" fill="#e0e0e0"/>
</svg>